<svg width="14" height="14" viewBox="0 0 14 14" fill="none" xmlns="http://www.w3.org/2000/svg">
<path d="M2.80015 2.09961C2.42884 2.09961 2.07275 2.24711 1.8102 2.50966C1.54765 2.77221 1.40015 3.12831 1.40015 3.49961C1.40015 3.87091 1.54765 4.22701 1.8102 4.48956C2.07275 4.75211 2.42884 4.89961 2.80015 4.89961H11.2001C11.5714 4.89961 11.9275 4.75211 12.1901 4.48956C12.4526 4.22701 12.6001 3.87091 12.6001 3.49961C12.6001 3.12831 12.4526 2.77221 12.1901 2.50966C11.9275 2.24711 11.5714 2.09961 11.2001 2.09961H2.80015Z" fill="#EE518A"/>
<path fill-rule="evenodd" clip-rule="evenodd" d="M2.1001 5.59961H11.9001V10.4996C11.9001 10.8709 11.7526 11.227 11.49 11.4896C11.2275 11.7521 10.8714 11.8996 10.5001 11.8996H3.5001C3.12879 11.8996 2.7727 11.7521 2.51015 11.4896C2.2476 11.227 2.1001 10.8709 2.1001 10.4996V5.59961ZM5.6001 7.69961C5.6001 7.51396 5.67385 7.33591 5.80512 7.20463C5.9364 7.07336 6.11445 6.99961 6.3001 6.99961H7.7001C7.88575 6.99961 8.0638 7.07336 8.19507 7.20463C8.32635 7.33591 8.4001 7.51396 8.4001 7.69961C8.4001 7.88526 8.32635 8.06331 8.19507 8.19458C8.0638 8.32586 7.88575 8.39961 7.7001 8.39961H6.3001C6.11445 8.39961 5.9364 8.32586 5.80512 8.19458C5.67385 8.06331 5.6001 7.88526 5.6001 7.69961Z" fill="#EE518A"/>
</svg>
