<svg width="16" height="16" viewBox="0 0 16 16" fill="none" xmlns="http://www.w3.org/2000/svg">
<path d="M9.1312 8L11.3944 5.7376C11.5445 5.58749 11.6288 5.38389 11.6288 5.1716C11.6288 4.95931 11.5445 4.75571 11.3944 4.6056C11.2443 4.45549 11.0407 4.37116 10.8284 4.37116C10.6161 4.37116 10.4125 4.45549 10.2624 4.6056L8 6.8688L5.7376 4.6056C5.58749 4.45549 5.38389 4.37116 5.1716 4.37116C4.95931 4.37116 4.75571 4.45549 4.6056 4.6056C4.45549 4.75571 4.37116 4.95931 4.37116 5.1716C4.37116 5.38389 4.45549 5.58749 4.6056 5.7376L6.8688 8L4.6056 10.2624C4.45549 10.4125 4.37116 10.6161 4.37116 10.8284C4.37116 11.0407 4.45549 11.2443 4.6056 11.3944C4.75571 11.5445 4.95931 11.6288 5.1716 11.6288C5.38389 11.6288 5.58749 11.5445 5.7376 11.3944L8 9.1312L10.2624 11.3944C10.4125 11.5445 10.6161 11.6288 10.8284 11.6288C11.0407 11.6288 11.2443 11.5445 11.3944 11.3944C11.5445 11.2443 11.6288 11.0407 11.6288 10.8284C11.6288 10.6161 11.5445 10.4125 11.3944 10.2624L9.1312 8ZM8 16C3.5816 16 0 12.4184 0 8C0 3.5816 3.5816 0 8 0C12.4184 0 16 3.5816 16 8C16 12.4184 12.4184 16 8 16Z" fill="#E3E4E6"/>
</svg>
