<svg width="80" height="80" viewBox="0 0 80 80" fill="none" xmlns="http://www.w3.org/2000/svg">
<path d="M45.8229 43.3258C45.8229 41.0258 47.6896 39.1592 49.9896 39.1592C52.2896 39.1592 54.1562 41.0258 54.1562 43.3258C54.1562 45.6258 52.2896 47.4925 49.9896 47.4925C47.6896 47.4925 45.8229 45.6258 45.8229 43.3258ZM73.3229 39.9925V67.3258C73.3229 70.6396 70.6366 73.3258 67.3229 73.3258H12.6562C9.34254 73.3258 6.65625 70.6396 6.65625 67.3258V39.9925C6.65625 21.6592 21.6562 6.65918 39.9896 6.65918C58.3229 6.65918 73.3229 21.6592 73.3229 39.9925ZM13.3229 39.9925C13.3229 54.6925 25.2896 66.6592 39.9896 66.6592C54.6896 66.6592 66.6562 54.6925 66.6562 39.9925C66.6562 39.3315 66.631 38.6769 66.5822 38.0295C66.3428 34.8547 63.1263 33.0919 59.9475 33.2724C59.3231 33.3079 58.6926 33.3258 58.0562 33.3258C50.7456 33.3258 43.9856 30.9681 38.4928 26.9694C34.6662 24.1837 28.2542 24.9109 25.1513 28.4851C22.5882 31.4374 19.5153 33.9365 16.0632 35.8449C14.4894 36.7149 13.3229 38.1942 13.3229 39.9925ZM29.9896 47.4925C32.2896 47.4925 34.1562 45.6258 34.1562 43.3258C34.1562 41.0258 32.2896 39.1592 29.9896 39.1592C27.6896 39.1592 25.8229 41.0258 25.8229 43.3258C25.8229 45.6258 27.6896 47.4925 29.9896 47.4925Z" fill="#FF71B6"/>
</svg>
