<svg width="80" height="80" viewBox="0 0 80 80" fill="none" xmlns="http://www.w3.org/2000/svg">
<path d="M29.9954 39.167C28.8904 39.167 27.8306 39.606 27.0492 40.3874C26.2678 41.1688 25.8288 42.2286 25.8288 43.3337C25.8288 44.4387 26.2678 45.4985 27.0492 46.2799C27.8306 47.0613 28.8904 47.5003 29.9954 47.5003C30.5426 47.5003 31.0844 47.3926 31.59 47.1832C32.0955 46.9738 32.5548 46.6668 32.9417 46.2799C33.3286 45.893 33.6355 45.4337 33.8449 44.9282C34.0543 44.4226 34.1621 43.8808 34.1621 43.3337C34.1621 42.7865 34.0543 42.2447 33.8449 41.7391C33.6355 41.2336 33.3286 40.7743 32.9417 40.3874C32.5548 40.0005 32.0955 39.6936 31.59 39.4842C31.0844 39.2748 30.5426 39.167 29.9954 39.167ZM49.9954 39.167C48.8904 39.167 47.8306 39.606 47.0492 40.3874C46.2678 41.1688 45.8288 42.2286 45.8288 43.3337C45.8288 44.4387 46.2678 45.4985 47.0492 46.2799C47.8306 47.0613 48.8904 47.5003 49.9954 47.5003C51.1005 47.5003 52.1603 47.0613 52.9417 46.2799C53.7231 45.4985 54.1621 44.4387 54.1621 43.3337C54.1621 42.2286 53.7231 41.1688 52.9417 40.3874C52.1603 39.606 51.1005 39.167 49.9954 39.167ZM39.9954 6.66699C35.618 6.66699 31.2835 7.52918 27.2393 9.20434C23.1951 10.8795 19.5205 13.3348 16.4252 16.4301C10.174 22.6813 6.66211 31.1598 6.66211 40.0003C6.66211 48.8409 10.174 57.3193 16.4252 63.5705C19.5205 66.6658 23.1951 69.1212 27.2393 70.7963C31.2835 72.4715 35.618 73.3337 39.9954 73.3337C48.836 73.3337 57.3145 69.8218 63.5657 63.5705C69.8169 57.3193 73.3288 48.8409 73.3288 40.0003C73.3288 35.6229 72.4666 31.2884 70.7914 27.2442C69.1163 23.2 66.661 19.5254 63.5657 16.4301C60.4704 13.3348 56.7957 10.8795 52.7516 9.20434C48.7074 7.52918 44.3728 6.66699 39.9954 6.66699ZM39.9954 66.667C25.2954 66.667 13.3288 54.7003 13.3288 40.0003C13.3288 39.0337 13.3288 38.067 13.4954 37.1337C21.3621 33.6337 27.5954 27.2003 30.8621 19.2337C36.8954 27.767 46.8288 33.3337 58.0621 33.3337C60.6621 33.3337 63.1621 33.0337 65.5621 32.467C66.2621 34.8337 66.6621 37.367 66.6621 40.0003C66.6621 54.7003 54.6954 66.667 39.9954 66.667Z" fill="#51A2FF"/>
</svg>
