<svg width="16" height="16" viewBox="0 0 16 16" fill="none" xmlns="http://www.w3.org/2000/svg">
<g clip-path="url(#clip0_232_5697)">
<path d="M3.3694 13.5214H12.7989C13.8078 13.5214 14.3996 12.8894 14.3996 11.6375V5.39637C14.3996 4.1445 13.8022 3.51249 12.6298 3.51249H7.21898C6.8357 3.51249 6.6046 3.41526 6.32281 3.15394L5.979 2.85009C5.607 2.50978 5.31956 2.40039 4.76156 2.40039H3.15522C2.16887 2.40039 1.59961 3.0081 1.59961 4.22958V11.6375C1.59961 12.8954 2.19142 13.5214 3.3694 13.5214ZM3.38067 12.543C2.81705 12.543 2.50705 12.2209 2.50705 11.5889V4.28427C2.50705 3.68265 2.80014 3.37272 3.34122 3.37272H4.53047C4.90247 3.37272 5.12792 3.47603 5.41537 3.73734L5.75918 4.04727C6.12554 4.37543 6.42424 4.49089 6.98225 4.49089H12.6129C13.1709 4.49089 13.4922 4.81905 13.4922 5.45106V11.595C13.4922 12.2209 13.1709 12.543 12.6129 12.543H3.38067ZM2.15197 6.71509H13.8416V5.79745H2.15197V6.71509Z" fill="black" fill-opacity="0.85"/>
</g>
<defs>
<clipPath id="clip0_232_5697">
<rect width="12.8" height="11.2" fill="white" transform="translate(1.59961 2.40039)"/>
</clipPath>
</defs>
</svg>
