<svg width="19" height="17" viewBox="0 0 19 17" fill="none" xmlns="http://www.w3.org/2000/svg">
<path fill-rule="evenodd" clip-rule="evenodd" d="M5.97655 0C4.44663 0 2.91828 0.58405 1.74539 1.75537C0.71255 2.78721 0.0949606 4.16265 0.0100757 5.62013C-0.0748092 7.07761 0.378932 8.51561 1.28501 9.66037C2.79144 11.5238 6.92708 15.2194 8.63865 16.7258C9.05519 17.0922 9.7348 17.0907 10.1498 16.7258C11.8332 15.2335 15.8701 11.5989 17.5065 9.66343C18.4129 8.51929 18.8671 7.08192 18.7828 5.62472C18.6985 4.16751 18.0816 2.79213 17.0493 1.76015C16.0565 0.764683 14.7438 0.152179 13.3431 0.030967C11.9425 -0.0902446 10.544 0.287682 9.39499 1.0978C8.39548 0.389494 7.20159 0.00724654 5.97655 0.00324963V0Z" fill="#EE518A"/>
</svg>
