<svg width="44" height="19" viewBox="0 0 44 19" fill="none" xmlns="http://www.w3.org/2000/svg">
<g clip-path="url(#clip0_2254_16723)">
<path fill-rule="evenodd" clip-rule="evenodd" d="M34.5389 18.7842H9.46112C4.51244 18.7842 0.5 14.7543 0.5 9.78418C0.5 4.81403 4.51244 0.78418 9.46112 0.78418H34.5612C39.5098 0.78418 43.5223 4.81403 43.5223 9.78418C43.5223 14.7543 39.4876 18.7842 34.5389 18.7842Z" fill="#FFEB00"/>
<path fill-rule="evenodd" clip-rule="evenodd" d="M10.5537 5.10547C7.85643 5.10547 5.67188 6.82935 5.67188 8.9786C5.67188 10.3443 6.58582 11.5532 7.94559 12.2473L7.47747 13.9935C7.45518 14.0383 7.47747 14.1055 7.52206 14.1502C7.54435 14.1726 7.58893 14.195 7.61122 14.195C7.63351 14.195 7.6781 14.1726 7.70039 14.1726L9.68432 12.8293C9.9741 12.8741 10.2639 12.8965 10.576 12.8965C13.2732 12.8965 15.4578 11.1502 15.4578 9.02338C15.4578 6.82935 13.2732 5.10547 10.5537 5.10547Z" fill="black"/>
<path d="M19.5821 12.202V14.7095H17.7988V5.46321H19.0471L19.2701 6.0453C19.649 5.6647 20.2286 5.26172 21.1425 5.26172C22.8813 5.26172 23.706 6.56023 23.706 8.68709C23.706 10.9035 22.4354 12.314 20.6075 12.314C20.2509 12.3363 19.9834 12.314 19.5821 12.202ZM19.5821 6.96321V10.9483C19.6713 10.9707 19.9165 10.9931 20.1617 10.9931C21.4323 10.9931 21.9227 10.0975 21.9227 8.68709C21.9227 7.45575 21.5884 6.71694 20.5852 6.71694C20.2286 6.71694 19.8719 6.80649 19.5821 6.96321Z" fill="black"/>
<path d="M27.562 8.08276H28.5651V7.85888C28.5651 7.12007 28.1416 6.78425 27.4282 6.78425C26.8709 6.78425 26.1799 6.94097 25.6003 7.23201L25.1099 6.04545C25.7341 5.59769 26.7149 5.30664 27.5843 5.30664C29.2784 5.30664 30.2146 6.20216 30.2146 7.92604V12.1574H28.9663L28.788 11.5977C28.0747 12.1126 27.4059 12.3365 26.8264 12.3365C25.5335 12.3365 24.7979 11.5529 24.7979 10.232C24.7979 8.82157 25.7564 8.08276 27.562 8.08276ZM28.5874 10.4335V9.20216H27.7626C26.8487 9.20216 26.3805 9.53798 26.3805 10.1872C26.3805 10.6798 26.6257 10.926 27.1607 10.926C27.6511 10.9484 28.2753 10.7022 28.5874 10.4335Z" fill="black"/>
<path d="M35.6088 11.464C34.9847 13.1208 34.2491 14.3297 33.1568 15.0014L32.0645 13.9939C32.6887 13.4342 33.1568 12.8969 33.5357 12.1805L31.1729 5.71031L32.9339 5.24016L34.4497 10.479L35.9432 5.21777L37.6819 5.71031L35.6088 11.464Z" fill="black"/>
</g>
<defs>
<clipPath id="clip0_2254_16723">
<rect width="43" height="18" fill="white" transform="translate(0.5 0.78418)"/>
</clipPath>
</defs>
</svg>
