<svg width="36" height="36" viewBox="0 0 36 36" fill="none" xmlns="http://www.w3.org/2000/svg">
<path fill-rule="evenodd" clip-rule="evenodd" d="M3.375 9.5332C3.375 9.24312 3.49353 8.96492 3.7045 8.7598C3.91548 8.55469 4.20163 8.43945 4.5 8.43945H31.5C31.7984 8.43945 32.0845 8.55469 32.2955 8.7598C32.5065 8.96492 32.625 9.24312 32.625 9.5332C32.625 9.82328 32.5065 10.1015 32.2955 10.3066C32.0845 10.5117 31.7984 10.627 31.5 10.627H4.5C4.20163 10.627 3.91548 10.5117 3.7045 10.3066C3.49353 10.1015 3.375 9.82328 3.375 9.5332ZM3.375 15.3665C3.375 15.0765 3.49353 14.7983 3.7045 14.5931C3.91548 14.388 4.20163 14.2728 4.5 14.2728H31.5C31.7984 14.2728 32.0845 14.388 32.2955 14.5931C32.5065 14.7983 32.625 15.0765 32.625 15.3665C32.625 15.6566 32.5065 15.9348 32.2955 16.1399C32.0845 16.3451 31.7984 16.4603 31.5 16.4603H4.5C4.20163 16.4603 3.91548 16.3451 3.7045 16.1399C3.49353 15.9348 3.375 15.6566 3.375 15.3665ZM30.1425 18.8563C31.695 19.4003 32.625 20.8863 32.625 22.7107C32.625 24.0203 31.839 25.2045 31.041 26.097C30.213 27.0245 29.193 27.8324 28.386 28.4113L28.275 28.4915C27.735 28.8809 27.123 29.3228 26.2515 29.3228C25.38 29.3228 24.7665 28.8809 24.2265 28.4915L24.1155 28.4113C23.3085 27.8338 22.2885 27.0245 21.4605 26.097C20.6625 25.203 19.8765 24.0203 19.8765 22.7107C19.8765 20.8863 20.8065 19.4003 22.359 18.8563C23.6115 18.4159 25.014 18.6813 26.2515 19.5272C27.489 18.6813 28.8915 18.4174 30.144 18.8563M29.3805 20.9126C28.875 20.7376 28.0005 20.8105 27.0405 21.7307C26.8301 21.932 26.5467 22.0448 26.2515 22.0448C25.9563 22.0448 25.6729 21.932 25.4625 21.7307C24.5025 20.812 23.628 20.7361 23.1225 20.914C22.641 21.0817 22.1265 21.6082 22.1265 22.7107C22.1265 23.2022 22.4535 23.873 23.1585 24.662C23.8335 25.4159 24.7035 26.1159 25.449 26.6497C25.7985 26.899 25.9695 27.0186 26.106 27.0901C26.196 27.1353 26.22 27.1353 26.2485 27.1353H26.2545C26.2845 27.1353 26.3085 27.1353 26.397 27.0901C26.5335 27.0186 26.7045 26.9005 27.054 26.6497C27.7995 26.1159 28.671 25.4159 29.3445 24.662C30.0495 23.873 30.3765 23.2036 30.3765 22.7107C30.3765 21.6082 29.862 21.0803 29.3805 20.9126ZM3.375 21.1999C3.375 20.9098 3.49353 20.6316 3.7045 20.4265C3.91548 20.2214 4.20163 20.1061 4.5 20.1061H15C15.2984 20.1061 15.5845 20.2214 15.7955 20.4265C16.0065 20.6316 16.125 20.9098 16.125 21.1999C16.125 21.49 16.0065 21.7681 15.7955 21.9733C15.5845 22.1784 15.2984 22.2936 15 22.2936H4.5C4.20163 22.2936 3.91548 22.1784 3.7045 21.9733C3.49353 21.7681 3.375 21.49 3.375 21.1999ZM3.375 27.0332C3.375 26.7431 3.49353 26.4649 3.7045 26.2598C3.91548 26.0547 4.20163 25.9395 4.5 25.9395H15C15.2984 25.9395 15.5845 26.0547 15.7955 26.2598C16.0065 26.4649 16.125 26.7431 16.125 27.0332C16.125 27.3233 16.0065 27.6015 15.7955 27.8066C15.5845 28.0117 15.2984 28.127 15 28.127H4.5C4.20163 28.127 3.91548 28.0117 3.7045 27.8066C3.49353 27.6015 3.375 27.3233 3.375 27.0332Z" fill="#EE518A"/>
</svg>
