<svg width="60" height="60" viewBox="0 0 60 60" fill="none" xmlns="http://www.w3.org/2000/svg">
<path fill-rule="evenodd" clip-rule="evenodd" d="M21.875 16.875C21.875 12.3877 25.5127 8.75 30 8.75C34.4873 8.75 38.125 12.3877 38.125 16.875V20H21.875V16.875ZM18.125 20.1755V16.875C18.125 10.3166 23.4416 5 30 5C36.5584 5 41.875 10.3166 41.875 16.875V20.1755C46.5016 21.0531 50 25.118 50 30V45C50 50.5228 45.5228 55 40 55H20C14.4772 55 10 50.5228 10 45V30C10 25.118 13.4984 21.0531 18.125 20.1755ZM30 33.125C31.0355 33.125 31.875 33.9645 31.875 35V40C31.875 41.0355 31.0355 41.875 30 41.875C28.9645 41.875 28.125 41.0355 28.125 40V35C28.125 33.9645 28.9645 33.125 30 33.125Z" fill="white"/>
</svg>
