<svg width="18" height="13" viewBox="0 0 18 13" fill="none" xmlns="http://www.w3.org/2000/svg">
<path d="M0 2.16668C0 1.59204 0.228275 1.04094 0.634607 0.634607C1.04094 0.228275 1.59204 0 2.16668 0H15.1668C15.7414 0 16.2925 0.228275 16.6989 0.634607C17.1052 1.04094 17.3335 1.59204 17.3335 2.16668V4.33337C16.7588 4.33337 16.2077 4.56164 15.8014 4.96797C15.3951 5.3743 15.1668 5.92541 15.1668 6.50005C15.1668 7.07469 15.3951 7.62579 15.8014 8.03212C16.2077 8.43846 16.7588 8.66673 17.3335 8.66673V10.8334C17.3335 11.4081 17.1052 11.9592 16.6989 12.3655C16.2925 12.7718 15.7414 13.0001 15.1668 13.0001H2.16668C1.59204 13.0001 1.04094 12.7718 0.634607 12.3655C0.228275 11.9592 0 11.4081 0 10.8334V8.66673C0.57464 8.66673 1.12574 8.43846 1.53208 8.03212C1.93841 7.62579 2.16668 7.07469 2.16668 6.50005C2.16668 5.92541 1.93841 5.3743 1.53208 4.96797C1.12574 4.56164 0.57464 4.33337 0 4.33337V2.16668Z" fill="#EE518A"/>
</svg>
