<svg width="32" height="32" viewBox="0 0 32 32" fill="none" xmlns="http://www.w3.org/2000/svg">
<path d="M29.2341 15.9998C29.2341 19.9171 27.4702 23.4297 24.68 25.8131C22.3564 27.7979 19.321 28.9996 15.9999 28.9996C12.6788 28.9996 9.64338 27.7979 7.31975 25.8131C4.52955 23.4297 2.76562 19.9171 2.76562 15.9998C2.76562 8.82021 8.6908 3 15.9999 3C23.3089 3 29.2341 8.82021 29.2341 15.9998Z" fill="#E3E4E6"/>
<circle cx="15.9993" cy="15.0002" r="5.89575" fill="#F7F7F7"/>
<path d="M24.6806 25.8211C23.3658 22.3747 19.9755 19.9209 16.0004 19.9209C12.0254 19.9209 8.63505 22.3747 7.32031 25.8211C9.64394 27.8015 12.6793 29.0004 16.0004 29.0004C19.3215 29.0004 22.3569 27.8015 24.6806 25.8211Z" fill="#F7F7F7"/>
</svg>
