<svg width="28" height="29" viewBox="0 0 28 29" fill="none" xmlns="http://www.w3.org/2000/svg">
<path d="M13.9999 2.83398C7.67542 2.83398 2.33325 8.17615 2.33325 14.5007C2.33325 20.8252 7.67542 26.1673 13.9999 26.1673C20.3244 26.1673 25.6666 20.8252 25.6666 14.5007C25.6666 8.17615 20.3244 2.83398 13.9999 2.83398ZM13.9999 8.66732C16.0148 8.66732 17.4999 10.1513 17.4999 12.1673C17.4999 14.1833 16.0148 15.6673 13.9999 15.6673C11.9863 15.6673 10.4999 14.1833 10.4999 12.1673C10.4999 10.1513 11.9863 8.66732 13.9999 8.66732ZM8.04292 20.068C9.08942 18.528 10.8348 17.5013 12.8333 17.5013H15.1666C17.1663 17.5013 18.9104 18.528 19.9569 20.068C18.4659 21.664 16.3508 22.6673 13.9999 22.6673C11.6491 22.6673 9.53392 21.664 8.04292 20.068Z" fill="#EE518A"/>
</svg>
