<svg width="16" height="16" viewBox="0 0 16 16" fill="none" xmlns="http://www.w3.org/2000/svg">
<path d="M14.6673 7.99967C14.6673 4.32634 11.674 1.33301 8.00065 1.33301C4.32732 1.33301 1.33398 4.32634 1.33398 7.99967C1.33398 9.93301 2.16732 11.673 3.48732 12.893C3.48732 12.8997 3.48732 12.8997 3.48065 12.9063C3.54732 12.973 3.62732 13.0263 3.69398 13.0863C3.73398 13.1197 3.76732 13.153 3.80732 13.1797C3.92732 13.2797 4.06065 13.373 4.18732 13.4663C4.23398 13.4997 4.27398 13.5263 4.32065 13.5597C4.44732 13.6463 4.58065 13.7263 4.72065 13.7997C4.76732 13.8263 4.82065 13.8597 4.86732 13.8863C5.00065 13.9597 5.14065 14.0263 5.28732 14.0863C5.34065 14.113 5.39398 14.1397 5.44732 14.1597C5.59398 14.2197 5.74065 14.273 5.88732 14.3197C5.94065 14.3397 5.99398 14.3597 6.04732 14.373C6.20732 14.4197 6.36732 14.4597 6.52732 14.4997C6.57398 14.513 6.62065 14.5263 6.67398 14.533C6.86065 14.573 7.04732 14.5997 7.24065 14.6197C7.26732 14.6197 7.29398 14.6263 7.32065 14.633C7.54732 14.653 7.77398 14.6663 8.00065 14.6663C8.22732 14.6663 8.45398 14.653 8.67398 14.633C8.70065 14.633 8.72732 14.6263 8.75398 14.6197C8.94732 14.5997 9.13398 14.573 9.32065 14.533C9.36732 14.5263 9.41398 14.5063 9.46732 14.4997C9.62732 14.4597 9.79398 14.4263 9.94732 14.373C10.0007 14.353 10.054 14.333 10.1073 14.3197C10.254 14.2663 10.4073 14.2197 10.5473 14.1597C10.6006 14.1397 10.654 14.113 10.7073 14.0863C10.8473 14.0263 10.9873 13.9597 11.1273 13.8863C11.1807 13.8597 11.2273 13.8263 11.274 13.7997C11.4073 13.7197 11.5407 13.6463 11.674 13.5597C11.7207 13.533 11.7606 13.4997 11.8073 13.4663C11.9406 13.373 12.0673 13.2797 12.1873 13.1797C12.2273 13.1463 12.2607 13.113 12.3007 13.0863C12.374 13.0263 12.4473 12.9663 12.514 12.9063C12.514 12.8997 12.514 12.8997 12.5073 12.893C13.834 11.673 14.6673 9.93301 14.6673 7.99967ZM11.294 11.313C9.48732 10.0997 6.52732 10.0997 4.70732 11.313C4.41398 11.5063 4.17398 11.733 3.97398 11.9797C2.96065 10.953 2.33398 9.54634 2.33398 7.99967C2.33398 4.87301 4.87398 2.33301 8.00065 2.33301C11.1273 2.33301 13.6673 4.87301 13.6673 7.99967C13.6673 9.54634 13.0407 10.953 12.0273 11.9797C11.834 11.733 11.5873 11.5063 11.294 11.313Z" fill="#46474E"/>
<path d="M8 4.62012C6.62 4.62012 5.5 5.74012 5.5 7.12012C5.5 8.47345 6.56 9.57345 7.96667 9.61345C7.98667 9.61345 8.01333 9.61345 8.02667 9.61345C8.04 9.61345 8.06 9.61345 8.07333 9.61345C8.08 9.61345 8.08667 9.61345 8.08667 9.61345C9.43333 9.56678 10.4933 8.47345 10.5 7.12012C10.5 5.74012 9.38 4.62012 8 4.62012Z" fill="#46474E"/>
</svg>
