<svg width="52" height="29" viewBox="0 0 52 29" fill="none" xmlns="http://www.w3.org/2000/svg">
<mask id="path-1-outside-1_447_10574" maskUnits="userSpaceOnUse" x="-0.84375" y="-0.744141" width="52" height="30" fill="black">
<rect fill="white" x="-0.84375" y="-0.744141" width="52" height="30"/>
<path d="M15.4032 1.40386C15.9072 1.40386 16.2712 1.85186 16.2432 2.32786C15.7672 7.19986 15.3472 19.2959 15.3192 23.1879C15.3192 23.6639 14.9272 24.0279 14.4792 24.0279C14.0032 24.0279 13.6392 23.6639 13.6392 23.1879C13.6672 19.2119 14.0872 7.08786 14.5632 2.15986C14.5912 1.73986 14.9552 1.40386 15.4032 1.40386ZM5.40722 11.0919C6.80722 13.1079 9.15922 16.5519 10.2512 18.2319C10.5592 18.7079 10.2512 19.4639 9.57922 19.4639C9.29922 19.4639 9.04722 19.3239 8.90722 19.0999C7.98322 17.6439 5.93922 14.6479 4.56722 12.6039C3.44722 14.5359 2.38322 16.2999 1.65522 17.3359C1.51522 17.5319 1.26322 17.6719 1.01122 17.6719C0.563219 17.6719 0.199219 17.3079 0.199219 16.8879C0.199219 16.7199 0.255219 16.5519 0.339219 16.4399C2.07522 13.9479 5.99522 6.77986 7.39522 3.95186C7.53522 3.67186 7.81522 3.50386 8.12322 3.50386C8.76722 3.50386 9.10322 4.14786 8.85122 4.67986C8.12322 6.13586 6.80722 8.62786 5.40722 11.0919ZM29.1311 14.3119C29.0751 14.7039 28.7391 15.0119 28.3191 15.0119C27.7871 15.0119 27.4231 14.5359 27.4791 14.0599C27.8431 11.8199 28.5431 6.69586 28.7111 5.21186C28.7671 4.70786 28.6551 4.48386 28.2071 4.48386C26.8351 4.48386 22.8311 4.79186 20.7591 5.09986C20.3671 5.15586 19.9471 4.84786 19.9471 4.39986C19.9471 4.06386 20.2271 3.75586 20.5631 3.69986C22.7191 3.39186 26.7791 3.08386 28.3751 3.08386C29.9711 3.08386 30.5591 4.00786 30.3631 5.54786C30.2231 6.86386 29.5231 12.0439 29.1311 14.3119ZM31.9311 18.7919C32.3231 18.7639 32.7151 19.0719 32.7151 19.4919C32.7151 19.8559 32.4351 20.1639 32.0711 20.1919C29.1591 20.4439 21.2631 21.0319 18.4071 21.1719C18.0151 21.1719 17.6511 20.8919 17.6511 20.4719C17.6511 20.0799 17.9591 19.7719 18.3231 19.7719C21.1511 19.6319 29.0751 19.0439 31.9311 18.7919ZM50.2604 22.7119C50.6524 22.7119 50.9324 23.0199 50.9324 23.4119C50.9324 23.8319 50.5684 24.1119 50.2044 24.1119C49.3924 24.0559 48.4684 24.0559 47.5444 24.0559C45.3604 26.6599 42.1404 28.2559 39.5644 28.4519C36.2604 28.6759 33.8804 27.4999 33.7964 25.8479C33.7124 24.1679 36.0364 23.5239 38.8084 23.1039C40.6284 22.8799 43.7084 22.6839 46.6204 22.6559C47.0964 21.9559 47.4884 21.1999 47.7964 20.3599C47.9924 19.7999 48.1044 19.9679 47.7404 19.9679C46.6204 19.9399 41.5524 19.8839 39.9844 19.8559C38.3604 19.7999 37.8844 18.0079 39.4804 17.2519C40.3204 16.8879 47.5724 14.2839 48.5524 13.5839C49.0564 13.2199 49.0844 13.3319 48.5244 13.2759C46.2844 13.0519 42.1964 13.4439 40.0124 14.1999C39.5924 14.3399 39.0884 14.0319 39.0884 13.4999C39.0884 13.1919 39.2844 12.9119 39.5924 12.8279C41.3844 12.2399 44.2684 11.8759 46.5924 11.8199C47.0404 9.60786 47.3484 7.28386 47.5164 5.23986C45.3324 5.35186 42.3644 5.74386 40.3204 6.10786C39.9004 6.16386 39.5084 5.85586 39.5084 5.40786C39.5084 5.07186 39.7604 4.79186 40.0964 4.70786C42.1964 4.34386 45.3604 3.92386 47.6284 3.81186C47.6844 2.74786 47.7124 1.79586 47.6844 1.06786C47.6844 0.591858 48.0484 0.199858 48.5244 0.199858C48.9724 0.199858 49.3644 0.563859 49.3644 1.01186C49.4484 3.41986 49.1124 7.81586 48.3004 11.8479C48.4404 11.8479 48.5524 11.8759 48.6924 11.8759C50.3724 12.0719 50.9324 13.6959 49.5044 14.7039C48.5244 15.4319 41.7764 17.8679 40.3764 18.4559C42.2524 18.4839 46.7604 18.5399 47.9364 18.5679C49.3364 18.6239 49.8684 19.4639 49.4204 20.8079C49.1964 21.4519 48.8884 22.0679 48.5244 22.6559C49.1404 22.6559 49.7284 22.6839 50.2604 22.7119ZM36.3444 11.3439C34.9444 11.6519 34.1044 11.0359 34.1044 9.63586C34.1324 7.73186 34.4404 4.73586 34.9444 2.69186C35.0284 2.32786 35.3644 2.04786 35.7564 2.04786C36.3164 2.04786 36.6804 2.55186 36.5684 3.05586C36.1204 4.95986 35.8124 7.84386 35.7844 9.52386C35.7844 9.94386 35.8404 10.0279 36.2324 9.94386C37.8844 9.57986 40.1244 9.10386 42.7844 8.62786C43.2044 8.57186 43.5964 8.87986 43.5964 9.32786C43.5964 9.66386 43.3444 9.94386 43.0364 10.0279C40.4604 10.4759 38.2764 10.9519 36.3444 11.3439ZM39.4524 27.0519C41.3004 26.9119 43.6244 25.9039 45.4444 24.0839C42.9804 24.1399 40.5724 24.3079 39.0324 24.5039C36.6244 24.8399 35.4484 25.2039 35.4764 25.7919C35.5044 26.6039 36.8204 27.2199 39.4524 27.0519Z"/>
</mask>
<path d="M15.4032 1.40386C15.9072 1.40386 16.2712 1.85186 16.2432 2.32786C15.7672 7.19986 15.3472 19.2959 15.3192 23.1879C15.3192 23.6639 14.9272 24.0279 14.4792 24.0279C14.0032 24.0279 13.6392 23.6639 13.6392 23.1879C13.6672 19.2119 14.0872 7.08786 14.5632 2.15986C14.5912 1.73986 14.9552 1.40386 15.4032 1.40386ZM5.40722 11.0919C6.80722 13.1079 9.15922 16.5519 10.2512 18.2319C10.5592 18.7079 10.2512 19.4639 9.57922 19.4639C9.29922 19.4639 9.04722 19.3239 8.90722 19.0999C7.98322 17.6439 5.93922 14.6479 4.56722 12.6039C3.44722 14.5359 2.38322 16.2999 1.65522 17.3359C1.51522 17.5319 1.26322 17.6719 1.01122 17.6719C0.563219 17.6719 0.199219 17.3079 0.199219 16.8879C0.199219 16.7199 0.255219 16.5519 0.339219 16.4399C2.07522 13.9479 5.99522 6.77986 7.39522 3.95186C7.53522 3.67186 7.81522 3.50386 8.12322 3.50386C8.76722 3.50386 9.10322 4.14786 8.85122 4.67986C8.12322 6.13586 6.80722 8.62786 5.40722 11.0919ZM29.1311 14.3119C29.0751 14.7039 28.7391 15.0119 28.3191 15.0119C27.7871 15.0119 27.4231 14.5359 27.4791 14.0599C27.8431 11.8199 28.5431 6.69586 28.7111 5.21186C28.7671 4.70786 28.6551 4.48386 28.2071 4.48386C26.8351 4.48386 22.8311 4.79186 20.7591 5.09986C20.3671 5.15586 19.9471 4.84786 19.9471 4.39986C19.9471 4.06386 20.2271 3.75586 20.5631 3.69986C22.7191 3.39186 26.7791 3.08386 28.3751 3.08386C29.9711 3.08386 30.5591 4.00786 30.3631 5.54786C30.2231 6.86386 29.5231 12.0439 29.1311 14.3119ZM31.9311 18.7919C32.3231 18.7639 32.7151 19.0719 32.7151 19.4919C32.7151 19.8559 32.4351 20.1639 32.0711 20.1919C29.1591 20.4439 21.2631 21.0319 18.4071 21.1719C18.0151 21.1719 17.6511 20.8919 17.6511 20.4719C17.6511 20.0799 17.9591 19.7719 18.3231 19.7719C21.1511 19.6319 29.0751 19.0439 31.9311 18.7919ZM50.2604 22.7119C50.6524 22.7119 50.9324 23.0199 50.9324 23.4119C50.9324 23.8319 50.5684 24.1119 50.2044 24.1119C49.3924 24.0559 48.4684 24.0559 47.5444 24.0559C45.3604 26.6599 42.1404 28.2559 39.5644 28.4519C36.2604 28.6759 33.8804 27.4999 33.7964 25.8479C33.7124 24.1679 36.0364 23.5239 38.8084 23.1039C40.6284 22.8799 43.7084 22.6839 46.6204 22.6559C47.0964 21.9559 47.4884 21.1999 47.7964 20.3599C47.9924 19.7999 48.1044 19.9679 47.7404 19.9679C46.6204 19.9399 41.5524 19.8839 39.9844 19.8559C38.3604 19.7999 37.8844 18.0079 39.4804 17.2519C40.3204 16.8879 47.5724 14.2839 48.5524 13.5839C49.0564 13.2199 49.0844 13.3319 48.5244 13.2759C46.2844 13.0519 42.1964 13.4439 40.0124 14.1999C39.5924 14.3399 39.0884 14.0319 39.0884 13.4999C39.0884 13.1919 39.2844 12.9119 39.5924 12.8279C41.3844 12.2399 44.2684 11.8759 46.5924 11.8199C47.0404 9.60786 47.3484 7.28386 47.5164 5.23986C45.3324 5.35186 42.3644 5.74386 40.3204 6.10786C39.9004 6.16386 39.5084 5.85586 39.5084 5.40786C39.5084 5.07186 39.7604 4.79186 40.0964 4.70786C42.1964 4.34386 45.3604 3.92386 47.6284 3.81186C47.6844 2.74786 47.7124 1.79586 47.6844 1.06786C47.6844 0.591858 48.0484 0.199858 48.5244 0.199858C48.9724 0.199858 49.3644 0.563859 49.3644 1.01186C49.4484 3.41986 49.1124 7.81586 48.3004 11.8479C48.4404 11.8479 48.5524 11.8759 48.6924 11.8759C50.3724 12.0719 50.9324 13.6959 49.5044 14.7039C48.5244 15.4319 41.7764 17.8679 40.3764 18.4559C42.2524 18.4839 46.7604 18.5399 47.9364 18.5679C49.3364 18.6239 49.8684 19.4639 49.4204 20.8079C49.1964 21.4519 48.8884 22.0679 48.5244 22.6559C49.1404 22.6559 49.7284 22.6839 50.2604 22.7119ZM36.3444 11.3439C34.9444 11.6519 34.1044 11.0359 34.1044 9.63586C34.1324 7.73186 34.4404 4.73586 34.9444 2.69186C35.0284 2.32786 35.3644 2.04786 35.7564 2.04786C36.3164 2.04786 36.6804 2.55186 36.5684 3.05586C36.1204 4.95986 35.8124 7.84386 35.7844 9.52386C35.7844 9.94386 35.8404 10.0279 36.2324 9.94386C37.8844 9.57986 40.1244 9.10386 42.7844 8.62786C43.2044 8.57186 43.5964 8.87986 43.5964 9.32786C43.5964 9.66386 43.3444 9.94386 43.0364 10.0279C40.4604 10.4759 38.2764 10.9519 36.3444 11.3439ZM39.4524 27.0519C41.3004 26.9119 43.6244 25.9039 45.4444 24.0839C42.9804 24.1399 40.5724 24.3079 39.0324 24.5039C36.6244 24.8399 35.4484 25.2039 35.4764 25.7919C35.5044 26.6039 36.8204 27.2199 39.4524 27.0519Z" fill="#FF71B6"/>
<path d="M16.2432 2.32786L16.4424 2.34732L16.4429 2.3396L16.2432 2.32786ZM15.3192 23.1879L15.1192 23.1864V23.1879H15.3192ZM13.6392 23.1879L13.4392 23.1865V23.1879H13.6392ZM14.5632 2.15986L14.7624 2.1791L14.7628 2.17316L14.5632 2.15986ZM5.40722 11.0919L5.23333 10.9931L5.17113 11.1025L5.24294 11.2059L5.40722 11.0919ZM10.2512 18.2319L10.4191 18.1232L10.4189 18.1229L10.2512 18.2319ZM8.90722 19.0999L9.07682 18.9939L9.07609 18.9927L8.90722 19.0999ZM4.56722 12.6039L4.73328 12.4924L4.5548 12.2265L4.39419 12.5036L4.56722 12.6039ZM1.65522 17.3359L1.81797 17.4521L1.81886 17.4508L1.65522 17.3359ZM0.339219 16.4399L0.499317 16.5599L0.503325 16.5542L0.339219 16.4399ZM7.39522 3.95186L7.21633 3.86242L7.21598 3.86313L7.39522 3.95186ZM8.85122 4.67986L9.03014 4.76932L9.03197 4.76548L8.85122 4.67986ZM15.4032 1.40386V1.60386C15.7785 1.60386 16.0656 1.94089 16.0436 2.31611L16.2432 2.32786L16.4429 2.3396C16.4768 1.76283 16.036 1.20386 15.4032 1.20386V1.40386ZM16.2432 2.32786L16.0442 2.30841C15.5673 7.18907 15.1472 19.2919 15.1192 23.1864L15.3192 23.1879L15.5192 23.1893C15.5472 19.2998 15.9671 7.21065 16.4423 2.34731L16.2432 2.32786ZM15.3192 23.1879H15.1192C15.1192 23.5491 14.8211 23.8279 14.4792 23.8279V24.0279V24.2279C15.0333 24.2279 15.5192 23.7786 15.5192 23.1879H15.3192ZM14.4792 24.0279V23.8279C14.1137 23.8279 13.8392 23.5534 13.8392 23.1879H13.6392H13.4392C13.4392 23.7743 13.8928 24.2279 14.4792 24.2279V24.0279ZM13.6392 23.1879L13.8392 23.1893C13.8672 19.2159 14.2871 7.09857 14.7623 2.17909L14.5632 2.15986L14.3641 2.14063C13.8873 7.07715 13.4672 19.2078 13.4392 23.1865L13.6392 23.1879ZM14.5632 2.15986L14.7628 2.17316C14.7834 1.86381 15.0548 1.60386 15.4032 1.60386V1.40386V1.20386C14.8556 1.20386 14.399 1.61591 14.3637 2.14655L14.5632 2.15986ZM5.40722 11.0919L5.24294 11.2059C6.64275 13.2217 8.99329 16.6636 10.0835 18.3409L10.2512 18.2319L10.4189 18.1229C9.32515 16.4402 6.97169 12.9941 5.57149 10.9778L5.40722 11.0919ZM10.2512 18.2319L10.0833 18.3405C10.1943 18.512 10.1988 18.7442 10.1033 18.9379C10.0106 19.126 9.83066 19.2639 9.57922 19.2639V19.4639V19.6639C9.99977 19.6639 10.3098 19.4237 10.4621 19.1148C10.6116 18.8115 10.6162 18.4277 10.4191 18.1232L10.2512 18.2319ZM9.57922 19.4639V19.2639C9.36611 19.2639 9.17919 19.1576 9.07682 18.9939L8.90722 19.0999L8.73762 19.2059C8.91525 19.4901 9.23233 19.6639 9.57922 19.6639V19.4639ZM8.90722 19.0999L9.07609 18.9927C8.15026 17.5338 6.10309 14.5331 4.73328 12.4924L4.56722 12.6039L4.40116 12.7153C5.77535 14.7626 7.81618 17.7539 8.73835 19.207L8.90722 19.0999ZM4.56722 12.6039L4.39419 12.5036C3.27387 14.4361 2.2139 16.193 1.49158 17.2209L1.65522 17.3359L1.81886 17.4508C2.55254 16.4068 3.62057 14.6356 4.74025 12.7042L4.56722 12.6039ZM1.65522 17.3359L1.49247 17.2196C1.38771 17.3663 1.19476 17.4719 1.01122 17.4719V17.6719V17.8719C1.33168 17.8719 1.64273 17.6974 1.81797 17.4521L1.65522 17.3359ZM1.01122 17.6719V17.4719C0.669105 17.4719 0.399219 17.1929 0.399219 16.8879H0.199219H-0.000781253C-0.000781253 17.4228 0.457333 17.8719 1.01122 17.8719V17.6719ZM0.199219 16.8879H0.399219C0.399219 16.7592 0.443446 16.6342 0.499219 16.5599L0.339219 16.4399L0.179219 16.3199C0.0669916 16.4695 -0.000781253 16.6805 -0.000781253 16.8879H0.199219ZM0.339219 16.4399L0.503325 16.5542C2.24816 14.0495 6.17349 6.87055 7.57446 4.04059L7.39522 3.95186L7.21598 3.86313C5.81695 6.68916 1.90228 13.8462 0.175113 16.3255L0.339219 16.4399ZM7.39522 3.95186L7.5741 4.0413C7.67952 3.83046 7.88939 3.70386 8.12322 3.70386V3.50386V3.30386C7.74105 3.30386 7.39091 3.51326 7.21633 3.86242L7.39522 3.95186ZM8.12322 3.50386V3.70386C8.60305 3.70386 8.86721 4.1789 8.67047 4.59424L8.85122 4.67986L9.03197 4.76548C9.33923 4.11682 8.93139 3.30386 8.12322 3.30386V3.50386ZM8.85122 4.67986L8.67233 4.59042C7.94601 6.04307 6.63168 8.53195 5.23333 10.9931L5.40722 11.0919L5.58111 11.1907C6.98276 8.72377 8.30043 6.22864 9.0301 4.7693L8.85122 4.67986ZM29.1311 14.3119L28.9339 14.2778L28.9331 14.2836L29.1311 14.3119ZM27.4791 14.0599L27.2815 14.0277L27.2805 14.0365L27.4791 14.0599ZM28.7111 5.21186L28.9098 5.23436L28.9099 5.23395L28.7111 5.21186ZM20.7591 5.09986L20.7874 5.29785L20.7885 5.29768L20.7591 5.09986ZM20.5631 3.69986L20.5348 3.50182L20.5302 3.50258L20.5631 3.69986ZM30.3631 5.54786L30.1647 5.5226L30.1642 5.5267L30.3631 5.54786ZM31.9311 18.7919L31.9168 18.5923L31.9135 18.5926L31.9311 18.7919ZM32.0711 20.1919L32.0558 19.9924L32.0539 19.9926L32.0711 20.1919ZM18.4071 21.1719V21.3721L18.4169 21.3716L18.4071 21.1719ZM18.3231 19.7719V19.9721L18.333 19.9716L18.3231 19.7719ZM29.1311 14.3119L28.9331 14.2836C28.8909 14.5792 28.6374 14.8119 28.3191 14.8119V15.0119V15.2119C28.8408 15.2119 29.2593 14.8285 29.3291 14.3401L29.1311 14.3119ZM28.3191 15.0119V14.8119C27.9173 14.8119 27.6345 14.451 27.6777 14.0832L27.4791 14.0599L27.2805 14.0365C27.2117 14.6208 27.6569 15.2119 28.3191 15.2119V15.0119ZM27.4791 14.0599L27.6765 14.0919C28.041 11.8489 28.7414 6.72169 28.9098 5.23436L28.7111 5.21186L28.5124 5.18936C28.3447 6.67003 27.6452 11.7908 27.2817 14.0278L27.4791 14.0599ZM28.7111 5.21186L28.9099 5.23395C28.9383 4.97827 28.9341 4.73273 28.816 4.55021C28.6846 4.34714 28.4586 4.28386 28.2071 4.28386V4.48386V4.68386C28.4035 4.68386 28.4576 4.73257 28.4802 4.76751C28.5161 4.82299 28.5399 4.94144 28.5123 5.18977L28.7111 5.21186ZM28.2071 4.48386V4.28386C26.8235 4.28386 22.8096 4.59286 20.7297 4.90203L20.7591 5.09986L20.7885 5.29768C22.8526 4.99086 26.8467 4.68386 28.2071 4.68386V4.48386ZM20.7591 5.09986L20.7308 4.90187C20.4476 4.94233 20.1471 4.71461 20.1471 4.39986H19.9471H19.7471C19.7471 4.98111 20.2866 5.36939 20.7874 5.29785L20.7591 5.09986ZM19.9471 4.39986H20.1471C20.1471 4.16983 20.3481 3.93845 20.596 3.89714L20.5631 3.69986L20.5302 3.50258C20.1061 3.57327 19.7471 3.95788 19.7471 4.39986H19.9471ZM20.5631 3.69986L20.5914 3.89785C22.7399 3.59092 26.7903 3.28386 28.3751 3.28386V3.08386V2.88386C26.7679 2.88386 22.6983 3.1928 20.5348 3.50187L20.5631 3.69986ZM28.3751 3.08386V3.28386C29.1362 3.28386 29.6109 3.50298 29.8819 3.85941C30.1582 4.22277 30.2597 4.77601 30.1647 5.52261L30.3631 5.54786L30.5615 5.57311C30.6625 4.77971 30.568 4.10095 30.2003 3.61731C29.8273 3.12674 29.21 2.88386 28.3751 2.88386V3.08386ZM30.3631 5.54786L30.1642 5.5267C30.0247 6.83862 29.3252 12.0143 28.934 14.2778L29.1311 14.3119L29.3282 14.3459C29.721 12.0734 30.4215 6.8891 30.562 5.56902L30.3631 5.54786ZM31.9311 18.7919L31.9453 18.9914C32.2379 18.9705 32.5151 19.2037 32.5151 19.4919H32.7151H32.9151C32.9151 18.94 32.4083 18.5573 31.9168 18.5924L31.9311 18.7919ZM32.7151 19.4919H32.5151C32.5151 19.7532 32.3137 19.9726 32.0558 19.9924L32.0711 20.1919L32.0864 20.3913C32.5565 20.3551 32.9151 19.9585 32.9151 19.4919H32.7151ZM32.0711 20.1919L32.0539 19.9926C29.1428 20.2445 21.2497 20.8323 18.3973 20.9721L18.4071 21.1719L18.4169 21.3716C21.2765 21.2314 29.1753 20.6432 32.0883 20.3911L32.0711 20.1919ZM18.4071 21.1719V20.9719C18.0996 20.9719 17.8511 20.7572 17.8511 20.4719H17.6511H17.4511C17.4511 21.0266 17.9306 21.3719 18.4071 21.3719V21.1719ZM17.6511 20.4719H17.8511C17.8511 20.185 18.0748 19.9719 18.3231 19.9719V19.7719V19.5719C17.8434 19.5719 17.4511 19.9748 17.4511 20.4719H17.6511ZM18.3231 19.7719L18.333 19.9716C21.1645 19.8314 29.0913 19.2432 31.9487 18.9911L31.9311 18.7919L31.9135 18.5926C29.0589 18.8445 21.1377 19.4323 18.3132 19.5721L18.3231 19.7719ZM50.2604 22.7119L50.2498 22.9119H50.2604V22.7119ZM50.2044 24.1119L50.1906 24.3119H50.2044V24.1119ZM47.5444 24.0559V23.8559H47.4511L47.3911 23.9273L47.5444 24.0559ZM39.5644 28.4519L39.5779 28.6514L39.5795 28.6513L39.5644 28.4519ZM33.7964 25.8479L33.5966 25.8578L33.5966 25.858L33.7964 25.8479ZM38.8084 23.1039L38.7839 22.9053L38.7784 22.9061L38.8084 23.1039ZM46.6204 22.6559L46.6223 22.8559L46.7269 22.8548L46.7858 22.7683L46.6204 22.6559ZM47.7964 20.3599L47.9842 20.4287L47.9851 20.4259L47.7964 20.3599ZM47.7404 19.9679L47.7354 20.1679H47.7404V19.9679ZM39.9844 19.8559L39.9775 20.0558L39.9808 20.0558L39.9844 19.8559ZM39.4804 17.2519L39.4008 17.0682L39.3948 17.0711L39.4804 17.2519ZM48.5524 13.5839L48.6686 13.7466L48.6695 13.746L48.5524 13.5839ZM48.5244 13.2759L48.5443 13.0769V13.0769L48.5244 13.2759ZM40.0124 14.1999L40.0756 14.3896L40.0778 14.3889L40.0124 14.1999ZM39.5924 12.8279L39.6451 13.0211L39.6547 13.0179L39.5924 12.8279ZM46.5924 11.8199L46.5972 12.0198L46.7567 12.016L46.7884 11.8596L46.5924 11.8199ZM47.5164 5.23986L47.7157 5.25624L47.7344 5.02841L47.5061 5.04012L47.5164 5.23986ZM40.3204 6.10786L40.3468 6.30629L40.3554 6.30476L40.3204 6.10786ZM40.0964 4.70786L40.0622 4.5108L40.055 4.51205L40.0479 4.51383L40.0964 4.70786ZM47.6284 3.81186L47.6382 4.01162L47.8186 4.00271L47.8281 3.82237L47.6284 3.81186ZM47.6844 1.06786H47.4842L47.4845 1.07555L47.6844 1.06786ZM49.3644 1.01186H49.1643L49.1645 1.01883L49.3644 1.01186ZM48.3004 11.8479L48.1043 11.8084L48.0561 12.0479H48.3004V11.8479ZM48.6924 11.8759L48.7156 11.6772L48.704 11.6759H48.6924V11.8759ZM49.5044 14.7039L49.389 14.5404L49.3851 14.5433L49.5044 14.7039ZM40.3764 18.4559L40.2989 18.2715L40.3734 18.6558L40.3764 18.4559ZM47.9364 18.5679L47.9444 18.368L47.9411 18.3679L47.9364 18.5679ZM49.4204 20.8079L49.6093 20.8736L49.6101 20.8711L49.4204 20.8079ZM48.5244 22.6559L48.3543 22.5506L48.1653 22.8559H48.5244V22.6559ZM36.3444 11.3439L36.3046 11.1478L36.3014 11.1485L36.3444 11.3439ZM34.1044 9.63586L33.9044 9.63292V9.63586H34.1044ZM34.9444 2.69186L35.1386 2.73974L35.1393 2.73683L34.9444 2.69186ZM36.5684 3.05586L36.7631 3.10167L36.7636 3.09925L36.5684 3.05586ZM35.7844 9.52386L35.5844 9.52052V9.52386H35.7844ZM36.2324 9.94386L36.2743 10.1394L36.2754 10.1392L36.2324 9.94386ZM42.7844 8.62786L42.7579 8.42942L42.7491 8.43099L42.7844 8.62786ZM43.0364 10.0279L43.0706 10.2249L43.0799 10.2233L43.089 10.2208L43.0364 10.0279ZM39.4524 27.0519L39.4651 27.2515L39.4675 27.2513L39.4524 27.0519ZM45.4444 24.0839L45.5858 24.2253L45.9385 23.8726L45.4398 23.8839L45.4444 24.0839ZM39.0324 24.5039L39.0071 24.3054L39.0047 24.3058L39.0324 24.5039ZM35.4764 25.7919L35.6763 25.785L35.6761 25.7823L35.4764 25.7919ZM50.2604 22.7119V22.9119C50.5313 22.9119 50.7324 23.1194 50.7324 23.4119H50.9324H51.1324C51.1324 22.9203 50.7735 22.5119 50.2604 22.5119V22.7119ZM50.9324 23.4119H50.7324C50.7324 23.7016 50.4788 23.9119 50.2044 23.9119V24.1119V24.3119C50.6579 24.3119 51.1324 23.9621 51.1324 23.4119H50.9324ZM50.2044 24.1119L50.2181 23.9123C49.3979 23.8558 48.4666 23.8559 47.5444 23.8559V24.0559V24.2559C48.4702 24.2559 49.3868 24.256 50.1906 24.3114L50.2044 24.1119ZM47.5444 24.0559L47.3911 23.9273C45.2385 26.4939 42.0668 28.0609 39.5492 28.2524L39.5644 28.4519L39.5795 28.6513C42.214 28.4508 45.4822 26.8258 47.6976 24.1844L47.5444 24.0559ZM39.5644 28.4519L39.5508 28.2523C37.9229 28.3627 36.5374 28.1267 35.557 27.6719C34.5727 27.2153 34.0328 26.5591 33.9961 25.8377L33.7964 25.8479L33.5966 25.858C33.644 26.7887 34.3361 27.5465 35.3887 28.0348C36.4454 28.525 37.9019 28.765 39.5779 28.6514L39.5644 28.4519ZM33.7964 25.8479L33.9961 25.8379C33.9603 25.1206 34.4259 24.5957 35.3152 24.1849C36.2042 23.7744 37.4532 23.5115 38.8383 23.3016L38.8084 23.1039L38.7784 22.9061C37.3915 23.1163 36.0926 23.3853 35.1475 23.8218C34.2029 24.258 33.5485 24.8951 33.5966 25.8578L33.7964 25.8479ZM38.8084 23.1039L38.8328 23.3024C40.6436 23.0795 43.7158 22.8838 46.6223 22.8559L46.6204 22.6559L46.6185 22.4559C43.7009 22.4839 40.6131 22.6802 38.7839 22.9054L38.8084 23.1039ZM46.6204 22.6559L46.7858 22.7683C47.2709 22.0548 47.6705 21.2842 47.9842 20.4287L47.7964 20.3599L47.6086 20.291C47.3063 21.1155 46.9218 21.8569 46.455 22.5434L46.6204 22.6559ZM47.7964 20.3599L47.9851 20.4259C48.031 20.2949 48.0711 20.2088 48.0994 20.1538C48.1138 20.1258 48.1254 20.1052 48.1355 20.087C48.1402 20.0786 48.1461 20.0679 48.1513 20.0576C48.155 20.0502 48.1658 20.0288 48.1724 20.0024C48.177 19.984 48.1983 19.8909 48.1248 19.811C48.0613 19.7419 47.9791 19.7442 47.9697 19.7442C47.9478 19.7442 47.9283 19.7475 47.9212 19.7487C47.9122 19.7502 47.9009 19.7524 47.8937 19.7537C47.8626 19.7595 47.8145 19.7679 47.7404 19.7679V19.9679V20.1679C47.8482 20.1679 47.9227 20.1552 47.9668 20.147C47.9785 20.1448 47.983 20.1439 47.9871 20.1433C47.993 20.1423 47.9839 20.1442 47.9697 20.1442C47.9622 20.1442 47.9444 20.1438 47.9223 20.1378C47.8993 20.1315 47.8626 20.1168 47.8304 20.0818C47.7965 20.0449 47.7831 20.0025 47.7798 19.969C47.7769 19.939 47.7817 19.9158 47.7843 19.9054C47.7892 19.8859 47.7961 19.8737 47.7938 19.8781C47.7931 19.8797 47.7911 19.8833 47.786 19.8925C47.7767 19.9092 47.7616 19.9359 47.7436 19.9709C47.7072 20.0419 47.6597 20.1448 47.6076 20.2938L47.7964 20.3599ZM47.7404 19.9679L47.7454 19.7679C46.6253 19.7399 41.5516 19.6838 39.9879 19.6559L39.9844 19.8559L39.9808 20.0558C41.5531 20.0839 46.6155 20.1398 47.7354 20.1678L47.7404 19.9679ZM39.9844 19.8559L39.9913 19.656C39.2546 19.6306 38.8195 19.219 38.7201 18.7728C38.622 18.3328 38.8343 17.7792 39.566 17.4326L39.4804 17.2519L39.3948 17.0711C38.5305 17.4805 38.1828 18.2009 38.3297 18.8599C38.4752 19.5128 39.0901 20.0251 39.9775 20.0557L39.9844 19.8559ZM39.4804 17.2519L39.5599 17.4354C39.975 17.2555 41.9863 16.518 44.0356 15.7306C45.0564 15.3383 46.0832 14.935 46.9169 14.5856C47.3336 14.4109 47.7036 14.249 48.0012 14.1083C48.2946 13.9695 48.53 13.8457 48.6686 13.7466L48.5524 13.5839L48.4361 13.4211C48.3298 13.4971 48.1241 13.6077 47.8301 13.7467C47.5402 13.8838 47.1763 14.0431 46.7622 14.2167C45.9343 14.5637 44.9119 14.9654 43.8921 15.3572C41.8605 16.1378 39.8257 16.8842 39.4009 17.0683L39.4804 17.2519ZM48.5524 13.5839L48.6695 13.746C48.7906 13.6585 48.8828 13.5998 48.9474 13.5584C48.9777 13.5389 49.0088 13.5189 49.032 13.5017C49.0431 13.4935 49.0608 13.4798 49.0774 13.462C49.0854 13.4534 49.1374 13.3999 49.1374 13.3144C49.1374 13.1969 49.0493 13.1418 49.018 13.1267C48.9858 13.1112 48.955 13.1062 48.9424 13.1042C48.9128 13.0997 48.8758 13.098 48.8448 13.0966C48.7754 13.0935 48.6778 13.0902 48.5443 13.0769L48.5244 13.2759L48.5045 13.4749C48.6509 13.4895 48.7598 13.4932 48.8269 13.4962C48.8438 13.497 48.8567 13.4976 48.8669 13.4983C48.8719 13.4987 48.8757 13.499 48.8784 13.4993C48.8813 13.4995 48.8823 13.4997 48.882 13.4997C48.882 13.4996 48.8788 13.4992 48.8737 13.4979C48.8691 13.4967 48.8581 13.4936 48.8443 13.487C48.8313 13.4808 48.8058 13.4665 48.7822 13.4383C48.7698 13.4234 48.7582 13.4049 48.7498 13.3825C48.7413 13.3599 48.7374 13.3368 48.7374 13.3144C48.7374 13.2708 48.7519 13.2385 48.7613 13.2218C48.7708 13.2048 48.7806 13.1937 48.785 13.189C48.7933 13.1801 48.7987 13.1767 48.7933 13.1807C48.7837 13.1879 48.7658 13.1996 48.7313 13.2217C48.6664 13.2634 48.5661 13.3272 48.4353 13.4217L48.5524 13.5839ZM48.5244 13.2759L48.5443 13.0769C47.4057 12.963 45.8089 13.0062 44.2266 13.1714C42.645 13.3366 41.0598 13.6257 39.947 14.0109L40.0124 14.1999L40.0778 14.3889C41.149 14.0181 42.6998 13.7331 44.2682 13.5693C45.8358 13.4055 47.403 13.3647 48.5045 13.4749L48.5244 13.2759ZM40.0124 14.1999L39.9491 14.0101C39.6544 14.1084 39.2884 13.8909 39.2884 13.4999H39.0884H38.8884C38.8884 14.1729 39.5304 14.5713 40.0756 14.3896L40.0124 14.1999ZM39.0884 13.4999H39.2884C39.2884 13.2759 39.4298 13.0795 39.645 13.0208L39.5924 12.8279L39.5398 12.6349C39.1389 12.7442 38.8884 13.1079 38.8884 13.4999H39.0884ZM39.5924 12.8279L39.6547 13.0179C41.4207 12.4384 44.283 12.0756 46.5972 12.0198L46.5924 11.8199L46.5876 11.6199C44.2538 11.6762 41.348 12.0413 39.53 12.6378L39.5924 12.8279ZM46.5924 11.8199L46.7884 11.8596C47.2381 9.63899 47.5471 7.30713 47.7157 5.25624L47.5164 5.23986L47.317 5.22347C47.1496 7.26058 46.8426 9.57673 46.3964 11.7802L46.5924 11.8199ZM47.5164 5.23986L47.5061 5.04012C45.3114 5.15267 42.3348 5.54598 40.2853 5.91096L40.3204 6.10786L40.3554 6.30476C42.394 5.94174 45.3533 5.55105 47.5266 5.4396L47.5164 5.23986ZM40.3204 6.10786L40.2939 5.90961C39.9849 5.95082 39.7084 5.72604 39.7084 5.40786H39.5084H39.3084C39.3084 5.98568 39.8159 6.3769 40.3468 6.3061L40.3204 6.10786ZM39.5084 5.40786H39.7084C39.7084 5.17864 39.8825 4.96749 40.1449 4.90189L40.0964 4.70786L40.0479 4.51383C39.6383 4.61623 39.3084 4.96508 39.3084 5.40786H39.5084ZM40.0964 4.70786L40.1305 4.90492C42.2259 4.54172 45.3813 4.12307 47.6382 4.01162L47.6284 3.81186L47.6185 3.6121C45.3395 3.72465 42.1668 4.146 40.0622 4.5108L40.0964 4.70786ZM47.6284 3.81186L47.8281 3.82237C47.8842 2.7572 47.9126 1.79769 47.8842 1.06017L47.6844 1.06786L47.4845 1.07555C47.5122 1.79402 47.4846 2.73852 47.4286 3.80135L47.6284 3.81186ZM47.6844 1.06786H47.8844C47.8844 0.693649 48.1673 0.399858 48.5244 0.399858V0.199858V-0.000141144C47.9294 -0.000141144 47.4844 0.490068 47.4844 1.06786H47.6844ZM48.5244 0.199858V0.399858C48.8708 0.399858 49.1644 0.682981 49.1644 1.01186H49.3644H49.5644C49.5644 0.444736 49.074 -0.000141144 48.5244 -0.000141144V0.199858ZM49.3644 1.01186L49.1645 1.01883C49.2479 3.40875 48.9138 7.78899 48.1043 11.8084L48.3004 11.8479L48.4964 11.8873C49.311 7.84272 49.6489 3.43097 49.5643 1.00488L49.3644 1.01186ZM48.3004 11.8479V12.0479C48.3577 12.0479 48.4103 12.0535 48.4743 12.0606C48.5363 12.0675 48.6097 12.0759 48.6924 12.0759V11.8759V11.6759C48.635 11.6759 48.5825 11.6702 48.5185 11.6631C48.4565 11.6562 48.383 11.6479 48.3004 11.6479V11.8479ZM48.6924 11.8759L48.6692 12.0745C49.4506 12.1657 49.93 12.5811 50.0727 13.0443C50.2131 13.4996 50.0495 14.0742 49.389 14.5405L49.5044 14.7039L49.6197 14.8673C50.3872 14.3255 50.6577 13.5841 50.455 12.9265C50.2547 12.2766 49.6142 11.782 48.7156 11.6772L48.6924 11.8759ZM49.5044 14.7039L49.3851 14.5433C49.2788 14.6223 49.0809 14.7331 48.8004 14.8703C48.5235 15.0057 48.1774 15.1614 47.7827 15.3307C46.9935 15.6693 46.0169 16.0595 45.0252 16.446C43.048 17.2167 41.0017 17.9763 40.2989 18.2715L40.3764 18.4559L40.4538 18.6403C41.1511 18.3474 43.1788 17.595 45.1705 16.8187C46.1633 16.4317 47.145 16.0396 47.9404 15.6983C48.3381 15.5277 48.6909 15.3691 48.9761 15.2296C49.2576 15.092 49.485 14.9674 49.6236 14.8644L49.5044 14.7039ZM40.3764 18.4559L40.3734 18.6558C42.2511 18.6839 46.7568 18.7398 47.9316 18.7678L47.9364 18.5679L47.9411 18.3679C46.764 18.3399 42.2536 18.2839 40.3794 18.2559L40.3764 18.4559ZM47.9364 18.5679L47.9284 18.7677C48.5944 18.7943 49.0014 19.0048 49.204 19.3144C49.4085 19.6268 49.4452 20.1009 49.2306 20.7446L49.4204 20.8079L49.6101 20.8711C49.8435 20.1708 49.8382 19.5529 49.5387 19.0953C49.2374 18.6349 48.6784 18.3974 47.9444 18.368L47.9364 18.5679ZM49.4204 20.8079L49.2315 20.7422C49.0131 21.3699 48.7121 21.9727 48.3543 22.5506L48.5244 22.6559L48.6944 22.7611C49.0647 22.1631 49.3796 21.5338 49.6093 20.8736L49.4204 20.8079ZM48.5244 22.6559V22.8559C49.1347 22.8559 49.7183 22.8836 50.2499 22.9116L50.2604 22.7119L50.2709 22.5121C49.7385 22.4841 49.146 22.4559 48.5244 22.4559V22.6559ZM36.3444 11.3439L36.3014 11.1485C35.6322 11.2957 35.1403 11.2125 34.8198 10.9707C34.5023 10.7311 34.3044 10.2986 34.3044 9.63586H34.1044H33.9044C33.9044 10.3731 34.1265 10.9486 34.5789 11.29C35.0284 11.6292 35.6565 11.7 36.3873 11.5392L36.3444 11.3439ZM34.1044 9.63586L34.3044 9.6388C34.3322 7.74619 34.639 4.76578 35.1386 2.73974L34.9444 2.69186L34.7502 2.64398C34.2418 4.70594 33.9326 7.71753 33.9044 9.63292L34.1044 9.63586ZM34.9444 2.69186L35.1393 2.73683C35.2028 2.46167 35.4594 2.24786 35.7564 2.24786V2.04786V1.84786C35.2693 1.84786 34.854 2.19404 34.7495 2.64689L34.9444 2.69186ZM35.7564 2.04786V2.24786C36.1821 2.24786 36.4588 2.62709 36.3731 3.01247L36.5684 3.05586L36.7636 3.09925C36.902 2.47663 36.4507 1.84786 35.7564 1.84786V2.04786ZM36.5684 3.05586L36.3737 3.01005C35.922 4.9299 35.6126 7.82834 35.5844 9.52053L35.7844 9.52386L35.9843 9.52719C36.0121 7.85938 36.3188 4.98981 36.7631 3.10167L36.5684 3.05586ZM35.7844 9.52386H35.5844C35.5844 9.6303 35.5877 9.72893 35.6022 9.81264C35.6165 9.89515 35.6459 9.99026 35.72 10.0643C35.7987 10.143 35.8976 10.1686 35.9883 10.1725C36.075 10.1763 36.1724 10.1613 36.2743 10.1394L36.2324 9.94386L36.1905 9.7483C36.0964 9.76846 36.0397 9.7744 36.0057 9.77292C35.9756 9.77162 35.9871 9.76573 36.0028 9.78144C36.0138 9.79246 36.0048 9.79307 35.9963 9.74433C35.9881 9.69678 35.9844 9.62742 35.9844 9.52386H35.7844ZM36.2324 9.94386L36.2754 10.1392C37.926 9.77549 40.1632 9.30009 42.8196 8.82473L42.7844 8.62786L42.7491 8.43099C40.0856 8.90763 37.8428 9.38423 36.1893 9.74854L36.2324 9.94386ZM42.7844 8.62786L42.8108 8.8261C43.1199 8.7849 43.3964 9.00968 43.3964 9.32786H43.5964H43.7964C43.7964 8.75004 43.2889 8.35882 42.7579 8.42961L42.7844 8.62786ZM43.5964 9.32786H43.3964C43.3964 9.56071 43.2179 9.77105 42.9838 9.83491L43.0364 10.0279L43.089 10.2208C43.4708 10.1167 43.7964 9.767 43.7964 9.32786H43.5964ZM43.0364 10.0279L43.0021 9.83082C40.4224 10.2795 38.2334 10.7565 36.3046 11.1479L36.3444 11.3439L36.3841 11.5399C38.3193 11.1472 40.4983 10.6723 43.0706 10.2249L43.0364 10.0279ZM39.4524 27.0519L39.4675 27.2513C41.3675 27.1073 43.7352 26.0759 45.5858 24.2253L45.4444 24.0839L45.303 23.9424C43.5136 25.7318 41.2333 26.7164 39.4373 26.8524L39.4524 27.0519ZM45.4444 24.0839L45.4398 23.8839C42.9712 23.94 40.556 24.1083 39.0071 24.3055L39.0324 24.5039L39.0576 24.7023C40.5888 24.5074 42.9895 24.3397 45.4489 24.2838L45.4444 24.0839ZM39.0324 24.5039L39.0047 24.3058C37.7997 24.4739 36.8866 24.651 36.275 24.8645C35.9701 24.971 35.7236 25.0919 35.5522 25.2373C35.376 25.3867 35.2658 25.575 35.2766 25.8014L35.4764 25.7919L35.6761 25.7823C35.6729 25.7147 35.6993 25.637 35.8109 25.5423C35.9274 25.4436 36.1202 25.3423 36.4068 25.2422C36.9781 25.0427 37.857 24.8698 39.06 24.7019L39.0324 24.5039ZM35.4764 25.7919L35.2765 25.7988C35.2948 26.3299 35.7327 26.7339 36.4211 26.9779C37.1181 27.225 38.1353 27.3363 39.4651 27.2515L39.4524 27.0519L39.4396 26.8523C38.1374 26.9354 37.1806 26.8227 36.5547 26.6009C35.92 26.3759 35.6859 26.0658 35.6763 25.785L35.4764 25.7919Z" fill="#FF71B6" mask="url(#path-1-outside-1_447_10574)"/>
</svg>
