<svg preserveAspectRatio="none" overflow="visible" style="display: block;" width="50" height="50" viewBox="0 0 50 50" fill="none" xmlns="http://www.w3.org/2000/svg">
<g id="Hamster">
<rect width="50" height="50" rx="25" fill="#FFF4E2"/>
<g id="Vector">
<path d="M31.779 14.5863C33.098 13.956 37.8649 17.8229 37.5007 19.0521C38.7923 20.8607 39.4821 23.2603 40.5686 25.2227C42.657 28.9884 42.3777 33.4857 38.3589 35.8381C32.813 39.0863 16.9272 39.0928 11.4385 35.7067C7.46602 33.2558 7.402 28.593 9.59939 24.9219C10.6239 23.2092 11.3642 20.7034 12.4343 19.0521C15.9989 15.0149 16.9662 14.2098 18.2922 14.455C18.4271 14.3761 20.8806 13.8481 21.3138 13.7562C24.5002 13.0811 28.7765 13.2702 31.779 14.5863Z" fill="#FFE296"/>
<path d="M24.5275 27.7476C29.162 27.2654 32.4942 32.8168 27.5531 34.724C25.6282 35.4664 21.3819 35.2131 20.4024 33.0238C19.1791 30.2911 22.044 28.0065 24.5275 27.7476Z" fill="#FFD685"/>
<path d="M18.2527 25.0148C21.1449 24.3473 21.1831 29.1616 18.5075 28.7938C16.6084 28.5323 16.6153 25.3921 18.2527 25.0148Z" fill="black"/>
<path d="M30.7859 25.0134C33.7693 24.3254 33.6917 29.336 30.9248 28.7679C29.1252 28.3974 29.2587 25.3649 30.7859 25.0134Z" fill="black"/>
<path d="M24.3435 30.7241C24.6353 31.1008 25.3646 31.1008 25.6564 30.7241L26.3143 29.8745C26.597 29.5095 26.2635 29.056 25.7119 29.028L25.6578 29.0266V29.1629C25.9146 29.1629 26.1088 29.2665 26.2065 29.3926C26.2995 29.5127 26.3112 29.656 26.2065 29.7911L25.5488 30.6406C25.4361 30.7861 25.227 30.8704 25 30.8704C24.7731 30.8704 24.5638 30.7862 24.4511 30.6406L23.7934 29.7911C23.6888 29.656 23.7004 29.5127 23.7934 29.3926C23.8911 29.2665 24.0853 29.1629 24.3422 29.1629V29.0266L24.288 29.028C23.7542 29.0551 23.4247 29.4806 23.6602 29.8388L23.6856 29.8745L24.3435 30.7241ZM25.6578 29.1629V29.0266H24.3422V29.1629H25.6578Z" fill="#692F35"/>
<path d="M24.3435 30.7241C24.6353 31.1008 25.3646 31.1008 25.6564 30.7241L26.3143 29.8745C26.6061 29.4977 26.2413 29.0266 25.6578 29.0266H24.3422C23.7586 29.0266 23.3938 29.4977 23.6856 29.8745L24.3435 30.7241Z" fill="#692F35"/>
<path d="M24.6294 30.8704C24.7133 30.822 24.8119 30.8704 25 30.8704C25.1881 30.8704 25.3105 30.9029 25.3105 30.8128C25.3105 30.7228 25.3105 31.6246 25.3105 31.6246C25.485 31.7072 25.6372 31.7837 25.8559 31.8557C25.9741 31.8946 26.1518 31.9264 26.3151 31.9488C26.3936 31.9596 26.4636 31.9676 26.5137 31.9728C26.5388 31.9753 26.5588 31.9771 26.5723 31.9783C26.579 31.9789 26.584 31.9795 26.5873 31.9798C26.5889 31.9799 26.5902 31.98 26.5909 31.9801C26.5912 31.9801 26.5916 31.9801 26.5916 31.9801C26.779 31.9953 26.9186 32.1597 26.9034 32.3471C26.8891 32.5229 26.7438 32.6566 26.5712 32.66L26.5364 32.659H26.5357C26.5353 32.6589 26.5347 32.6589 26.5341 32.6588C26.5328 32.6587 26.5311 32.6586 26.5289 32.6584C26.5245 32.658 26.5182 32.6574 26.5103 32.6567C26.4944 32.6552 26.4718 32.6531 26.4439 32.6502C26.3881 32.6444 26.3104 32.6357 26.2227 32.6237C26.0535 32.6005 25.8237 32.5622 25.6429 32.5026C25.3935 32.4205 25.1689 32.3119 24.9919 32.2283C24.9675 32.2428 24.9412 32.259 24.9132 32.2753C24.7806 32.3523 24.6032 32.4509 24.4514 32.5181C24.2311 32.6156 23.96 32.6459 23.7734 32.6567C23.6745 32.6624 23.5872 32.6632 23.5244 32.6625C23.4929 32.6622 23.4671 32.6616 23.4488 32.661C23.4398 32.6606 23.4325 32.6604 23.4273 32.6602C23.4247 32.66 23.4225 32.6598 23.4209 32.6598C23.4201 32.6597 23.4194 32.6598 23.4189 32.6598L23.4182 32.6596H23.4178C23.23 32.6495 23.0859 32.489 23.096 32.3012C23.1062 32.1134 23.2666 31.9694 23.4544 31.9795C23.4549 31.9796 23.456 31.9796 23.4575 31.9797C23.4605 31.9798 23.4655 31.98 23.4721 31.9802C23.4855 31.9807 23.5057 31.9811 23.5312 31.9814C23.5825 31.9819 23.654 31.9812 23.7341 31.9766C23.9055 31.9667 24.0732 31.9405 24.1756 31.8952C24.2916 31.8438 24.4425 31.7609 24.5711 31.6862C24.5916 31.6743 24.6109 31.6624 24.6294 31.6515V30.8704Z" fill="#692F35"/>
<path d="M18.2922 14.4951C15.3583 15.5388 12.9566 18.6872 12.4343 19.2632C7.28755 14.442 14.9069 7.97784 18.2922 14.4951Z" fill="#FFB649"/>
<path d="M37.5007 19.2632C36.4708 17.7674 33.4396 15.3861 31.779 14.6314C34.994 7.86482 42.9076 14.4829 37.5007 19.2632Z" fill="#FFB649"/>
</g>
</g>
</svg>
