<svg width="110" height="100" viewBox="0 0 110 100" fill="none" xmlns="http://www.w3.org/2000/svg">
<path d="M55.2755 8.70928C42.3349 -3.32436 22.434 -2.88781 9.99838 10.0189C-2.8726 23.3775 -3.78518 41.7421 9.99838 58.3945C23.7819 75.0469 47.5072 97.3241 47.5072 97.3241C51.6134 100.892 58.9375 100.892 63.0438 97.3241C63.0438 97.3241 88.2337 73.5266 100.553 58.3945C112.872 43.2624 113.424 23.3775 100.553 10.0189C88.117 -2.88781 68.2162 -3.32436 55.2755 8.70928Z" fill="#EB3E7C"/>
<path d="M79.3942 48.2274C80.5048 46.8367 82.5309 46.7228 83.7672 47.995L84.9624 49.2249C85.9833 50.2755 86.1214 51.9342 85.2637 53.1312C83.0443 56.2284 78.7117 62.0766 75.092 65.7696C71.9991 68.9251 67.2348 72.7434 64.5609 74.8203C63.4144 75.7108 61.8188 75.5807 60.8016 74.534L59.5974 73.2948C58.3613 72.0228 58.4539 69.9191 59.7839 68.7544C62.5758 66.3094 67.1083 62.2474 70.1946 59.0134C73.2489 55.8129 77.0801 51.1251 79.3942 48.2274Z" fill="#FF92B9"/>
</svg>
