<svg width="216" height="138" viewBox="0 0 216 138" fill="none" xmlns="http://www.w3.org/2000/svg">
<g clip-path="url(#clip0_2579_8631)">
<rect x="22.6926" y="14.4043" width="172" height="108" rx="12" fill="#FFB5D0"/>
<rect x="29.1926" y="21.9043" width="159" height="94" rx="8.5" stroke="url(#paint0_linear_2579_8631)" stroke-width="3"/>
<rect x="43.6926" y="76.4043" width="35" height="5" rx="2.5" fill="#EE518A"/>
<rect x="81.6926" y="76.4043" width="25" height="5" rx="2.5" fill="#EE518A"/>
<rect x="43.6926" y="87.4043" width="63" height="5" rx="2.5" fill="#EE518A"/>
<rect x="43.6926" y="65.4043" width="47" height="5" rx="2.5" fill="#EE518A"/>
<rect x="121.693" y="37.4043" width="54" height="63" rx="12" fill="#FFF2F7"/>
<path d="M148.765 58.4994C145.377 55.4669 140.166 55.577 136.91 58.8295C133.541 62.1958 133.302 66.8237 136.91 71.0201C140.519 75.2165 146.731 80.8304 146.731 80.8304C147.806 81.7295 149.724 81.7295 150.799 80.8304C150.799 80.8304 157.394 74.8334 160.619 71.0201C163.845 67.2068 163.989 62.1958 160.619 58.8295C157.363 55.577 152.153 55.4669 148.765 58.4994Z" fill="#EB3E7C"/>
<rect x="-1515.81" y="-96.0957" width="2903" height="3768" stroke="#171BFF" stroke-width="21"/>
<path d="M61.0504 41.5077C60.3446 40.906 59.2591 40.9279 58.5808 41.5732C57.8787 42.2411 57.8289 43.1594 58.5808 43.992C59.3326 44.8246 60.6267 45.9385 60.6267 45.9385C60.8507 46.1169 61.2502 46.1169 61.4742 45.9385C61.4742 45.9385 62.8481 44.7486 63.5201 43.992C64.192 43.2354 64.2221 42.2411 63.5201 41.5732C62.8418 40.9279 61.7563 40.906 61.0504 41.5077Z" fill="#EB3E7C"/>
<path d="M54.0504 41.5077C53.3446 40.906 52.2591 40.9279 51.5808 41.5732C50.8787 42.2411 50.8289 43.1594 51.5808 43.992C52.3326 44.8246 53.6267 45.9385 53.6267 45.9385C53.8507 46.1169 54.2502 46.1169 54.4742 45.9385C54.4742 45.9385 55.8481 44.7486 56.5201 43.992C57.192 43.2354 57.2221 42.2411 56.5201 41.5732C55.8418 40.9279 54.7563 40.906 54.0504 41.5077Z" fill="#EB3E7C"/>
<path d="M47.0504 41.5077C46.3446 40.906 45.2591 40.9279 44.5808 41.5732C43.8787 42.2411 43.8289 43.1594 44.5808 43.992C45.3326 44.8246 46.6267 45.9385 46.6267 45.9385C46.8507 46.1169 47.2502 46.1169 47.4742 45.9385C47.4742 45.9385 48.8481 44.7486 49.5201 43.992C50.192 43.2354 50.2221 42.2411 49.5201 41.5732C48.8418 40.9279 47.7563 40.906 47.0504 41.5077Z" fill="#EB3E7C"/>
</g>
<path d="M203.216 2.92032C204.186 1.62166 206.038 1.45877 207.158 2.61887C207.987 3.4771 208.154 4.81247 207.517 5.8333C206.592 7.31521 205.193 9.4001 203.891 10.7175C202.803 11.819 201.151 13.0223 199.913 13.8645C198.939 14.528 197.664 14.3602 196.837 13.5043C195.714 12.3408 195.854 10.3994 197.092 9.37168C198.2 8.4522 199.472 7.33989 200.398 6.36216C201.314 5.39574 202.355 4.07361 203.216 2.92032Z" fill="#FF73A5"/>
<path d="M6.19889 110.89C4.7459 110.584 3.37762 111.593 3.30138 113.068C3.24367 114.186 3.95748 115.228 5.03997 115.544C6.71403 116.032 9.20604 116.679 11.0936 116.823C12.6762 116.945 14.7739 116.785 16.267 116.628C17.3673 116.513 18.1756 115.615 18.2331 114.501C18.3096 113.021 17.0552 111.759 15.5809 111.786C14.0883 111.812 12.271 111.803 10.8467 111.666C9.43829 111.531 7.65953 111.198 6.19889 110.89Z" fill="#FF92B9"/>
<path d="M209.351 18.0303C210.852 17.5461 212.427 18.4543 212.646 20.0076C212.8 21.0933 212.231 22.184 211.218 22.6319C209.936 23.199 208.16 23.8989 206.761 24.1246C205.598 24.3121 204.057 24.2753 202.871 24.1999C201.792 24.1313 200.96 23.3019 200.807 22.22C200.587 20.6616 201.834 19.2242 203.397 19.1382C204.418 19.0821 205.526 18.9847 206.426 18.8164C207.315 18.6502 208.379 18.344 209.351 18.0303Z" fill="#FF92B9"/>
<path d="M9.31229 128.993C7.91214 129.615 7.37562 131.286 8.20582 132.565C8.82926 133.525 10.0454 133.963 11.1339 133.579C12.7795 132.999 15.1582 132.075 16.7581 131.091C18.0984 130.267 19.6813 128.914 20.792 127.906C21.6302 127.145 21.7563 125.916 21.1344 124.958C20.3019 123.676 18.4875 123.385 17.2741 124.303C16.0973 125.193 14.6585 126.227 13.4503 126.938C12.2559 127.64 10.6603 128.394 9.31229 128.993Z" fill="#FF73A5"/>
<defs>
<linearGradient id="paint0_linear_2579_8631" x1="36.8027" y1="20.4043" x2="73.875" y2="166.056" gradientUnits="userSpaceOnUse">
<stop stop-color="#FF5894"/>
<stop offset="0.471154" stop-color="#DC2E6D"/>
<stop offset="1" stop-color="#D9004E"/>
</linearGradient>
<clipPath id="clip0_2579_8631">
<rect x="22.6926" y="14.4043" width="172" height="108" rx="12" fill="white"/>
</clipPath>
</defs>
</svg>
